<svg id="Group_3164" data-name="Group 3164" xmlns="http://www.w3.org/2000/svg" xmlns:xlink="http://www.w3.org/1999/xlink" width="80.236" height="80.192" viewBox="0 0 80.236 80.192">
  <defs>
    <clipPath id="clip-path">
      <rect id="Rectangle_388" data-name="Rectangle 388" width="80.236" height="80.192" fill="#0031ba" stroke="#0031ba" stroke-width="1"/>
    </clipPath>
  </defs>
  <g id="Group_3163" data-name="Group 3163" clip-path="url(#clip-path)">
    <path id="Path_1259" data-name="Path 1259" d="M79.232,78.188H73.581a10.339,10.339,0,0,0-9.246-9.435V64.178a16.947,16.947,0,0,0,15.89-16.885,1,1,0,0,0-.863-.993c-5.07-.712-9.152.239-12.131,2.83a12.929,12.929,0,0,0-2.9,3.682v-6.8c1.576-1.233,6.964-5.866,6.964-11.6,0-6.571-7.083-11.7-7.384-11.915a1,1,0,0,0-1.165,0c-.3.215-7.384,5.345-7.384,11.915,0,5.732,5.389,10.366,6.964,11.6v6.972a13,13,0,0,0-2.986-3.853c-2.98-2.59-7.062-3.541-12.133-2.83a1,1,0,0,0-.863.993A16.946,16.946,0,0,0,62.33,64.182v4.565a10.337,10.337,0,0,0-9.338,9.44H48.476A11.64,11.64,0,0,0,36.869,67.265a10.268,10.268,0,0,0-3.429.515,15.462,15.462,0,0,0-9.729-4.324V53.468A22.672,22.672,0,0,0,45.291,30.85a1,1,0,0,0-.863-.993c-6.782-.954-12.227.311-16.191,3.76a17.763,17.763,0,0,0-4.527,6.3V31.654c1.875-1.44,9.458-7.747,9.458-15.576,0-8.741-9.475-15.6-9.878-15.891a1,1,0,0,0-1.165,0c-.4.288-9.879,7.15-9.879,15.891,0,7.83,7.584,14.136,9.459,15.576v8.527a17.9,17.9,0,0,0-4.65-6.564C13.091,30.17,7.643,28.907.863,29.858A1,1,0,0,0,0,30.851,22.671,22.671,0,0,0,21.707,53.472v9.979A15.493,15.493,0,0,0,7.18,78.187H1.046a1,1,0,0,0,0,2.005H79.233a1,1,0,1,0,0-2.005ZM68.557,50.635c2.352-2.039,5.6-2.863,9.638-2.456a14.945,14.945,0,0,1-13.859,14V60.01c.151-1.79.863-6.462,4.221-9.376ZM57.371,34.413c0-4.539,4.36-8.52,5.963-9.83,1.6,1.308,5.961,5.279,5.961,9.83s-4.36,8.519-5.963,9.83c-1.6-1.308-5.961-5.279-5.961-9.83M48.379,48.179c4.046-.409,7.288.417,9.639,2.456,4.2,3.643,4.269,10.049,4.269,10.113h0a.965.965,0,0,0,.042.206V62.18A14.945,14.945,0,0,1,48.379,48.179ZM63.287,70.7a8.336,8.336,0,0,1,8.29,7.484H55A8.338,8.338,0,0,1,63.287,70.7ZM46.472,78.188H38.134a15.364,15.364,0,0,0-3.212-8.744,9.47,9.47,0,0,1,1.947-.173,9.636,9.636,0,0,1,9.6,8.917ZM29.564,35.119c3.337-2.9,7.949-4.034,13.7-3.389A20.654,20.654,0,0,1,23.711,51.438V48.1c.208-2.475,1.191-8.937,5.853-12.983ZM14.252,16.077c0-6.544,6.458-12.213,8.457-13.812,2,1.6,8.456,7.254,8.456,13.812S24.71,28.289,22.709,29.888c-2-1.6-8.457-7.268-8.457-13.811M2.024,31.73c5.758-.645,10.367.492,13.707,3.39,5.833,5.059,5.918,13.912,5.918,14h0a.966.966,0,0,0,.058.284v2.038A20.652,20.652,0,0,1,2.024,31.73ZM22.657,65.406a13.5,13.5,0,0,1,13.473,12.78H9.185a13.5,13.5,0,0,1,13.472-12.78Z" transform="translate(0 0)" fill="#0031ba" stroke="#0031ba" stroke-width="1"/>
  </g>
</svg>
